<svg width="12" height="12" viewBox="0 0 12 12" fill="none" xmlns="http://www.w3.org/2000/svg">
<path id="calendar_month" d="M1.8001 12C1.4701 12 1.1876 11.8825 0.952598 11.6475C0.717598 11.4125 0.600098 11.13 0.600098 10.8V2.4C0.600098 2.07 0.717598 1.7875 0.952598 1.5525C1.1876 1.3175 1.4701 1.2 1.8001 1.2H2.4001V0H3.6001V1.2H8.4001V0H9.6001V1.2H10.2001C10.5301 1.2 10.8126 1.3175 11.0476 1.5525C11.2826 1.7875 11.4001 2.07 11.4001 2.4V10.8C11.4001 11.13 11.2826 11.4125 11.0476 11.6475C10.8126 11.8825 10.5301 12 10.2001 12H1.8001ZM1.8001 10.8H10.2001V4.8H1.8001V10.8ZM1.8001 3.6H10.2001V2.4H1.8001V3.6ZM6.0001 7.2C5.8301 7.2 5.6876 7.1425 5.5726 7.0275C5.4576 6.9125 5.4001 6.77 5.4001 6.6C5.4001 6.43 5.4576 6.2875 5.5726 6.1725C5.6876 6.0575 5.8301 6 6.0001 6C6.1701 6 6.3126 6.0575 6.4276 6.1725C6.5426 6.2875 6.6001 6.43 6.6001 6.6C6.6001 6.77 6.5426 6.9125 6.4276 7.0275C6.3126 7.1425 6.1701 7.2 6.0001 7.2ZM3.6001 7.2C3.4301 7.2 3.2876 7.1425 3.1726 7.0275C3.0576 6.9125 3.0001 6.77 3.0001 6.6C3.0001 6.43 3.0576 6.2875 3.1726 6.1725C3.2876 6.0575 3.4301 6 3.6001 6C3.7701 6 3.9126 6.0575 4.0276 6.1725C4.1426 6.2875 4.2001 6.43 4.2001 6.6C4.2001 6.77 4.1426 6.9125 4.0276 7.0275C3.9126 7.1425 3.7701 7.2 3.6001 7.2ZM8.4001 7.2C8.2301 7.2 8.0876 7.1425 7.9726 7.0275C7.8576 6.9125 7.8001 6.77 7.8001 6.6C7.8001 6.43 7.8576 6.2875 7.9726 6.1725C8.0876 6.0575 8.2301 6 8.4001 6C8.5701 6 8.7126 6.0575 8.8276 6.1725C8.9426 6.2875 9.0001 6.43 9.0001 6.6C9.0001 6.77 8.9426 6.9125 8.8276 7.0275C8.7126 7.1425 8.5701 7.2 8.4001 7.2ZM6.0001 9.6C5.8301 9.6 5.6876 9.5425 5.5726 9.4275C5.4576 9.3125 5.4001 9.17 5.4001 9C5.4001 8.83 5.4576 8.6875 5.5726 8.5725C5.6876 8.4575 5.8301 8.4 6.0001 8.4C6.1701 8.4 6.3126 8.4575 6.4276 8.5725C6.5426 8.6875 6.6001 8.83 6.6001 9C6.6001 9.17 6.5426 9.3125 6.4276 9.4275C6.3126 9.5425 6.1701 9.6 6.0001 9.6ZM3.6001 9.6C3.4301 9.6 3.2876 9.5425 3.1726 9.4275C3.0576 9.3125 3.0001 9.17 3.0001 9C3.0001 8.83 3.0576 8.6875 3.1726 8.5725C3.2876 8.4575 3.4301 8.4 3.6001 8.4C3.7701 8.4 3.9126 8.4575 4.0276 8.5725C4.1426 8.6875 4.2001 8.83 4.2001 9C4.2001 9.17 4.1426 9.3125 4.0276 9.4275C3.9126 9.5425 3.7701 9.6 3.6001 9.6ZM8.4001 9.6C8.2301 9.6 8.0876 9.5425 7.9726 9.4275C7.8576 9.3125 7.8001 9.17 7.8001 9C7.8001 8.83 7.8576 8.6875 7.9726 8.5725C8.0876 8.4575 8.2301 8.4 8.4001 8.4C8.5701 8.4 8.7126 8.4575 8.8276 8.5725C8.9426 8.6875 9.0001 8.83 9.0001 9C9.0001 9.17 8.9426 9.3125 8.8276 9.4275C8.7126 9.5425 8.5701 9.6 8.4001 9.6Z" fill="#565656"/>
</svg>
