<svg width="26" height="26" viewBox="0 0 26 26" fill="none" xmlns="http://www.w3.org/2000/svg">
<path id="link" d="M17.1525 19.2736L12.9099 23.5162C11.4427 24.9834 9.67489 25.7171 7.6066 25.7171C5.53831 25.7171 3.77055 24.9834 2.3033 23.5162C0.836054 22.0489 0.102431 20.2812 0.102431 18.2129C0.102431 16.1446 0.836054 14.3768 2.3033 12.9096L6.54594 8.66695L8.66726 10.7883L4.42462 15.0309C3.54074 15.9148 3.0988 16.9755 3.0988 18.2129C3.0988 19.4503 3.54074 20.511 4.42462 21.3949C5.3085 22.2788 6.36916 22.7207 7.6066 22.7207C8.84404 22.7207 9.9047 22.2788 10.7886 21.3949L15.0312 17.1522L17.1525 19.2736ZM9.72792 18.2129L7.6066 16.0916L16.0919 7.60629L18.2132 9.72761L9.72792 18.2129ZM19.2739 17.1522L17.1525 15.0309L21.3952 10.7883C22.2791 9.90439 22.721 8.84373 22.721 7.60629C22.721 6.36885 22.2791 5.30819 21.3952 4.42431C20.5113 3.54043 19.4506 3.09848 18.2132 3.09848C16.9758 3.09848 15.9151 3.54043 15.0312 4.42431L10.7886 8.66695L8.66726 6.54563L12.9099 2.30299C14.3771 0.835743 16.1449 0.102118 18.2132 0.102119C20.2815 0.102118 22.0493 0.835742 23.5165 2.30299C24.9838 3.77023 25.7174 5.538 25.7174 7.60629C25.7174 9.67458 24.9837 11.4423 23.5165 12.9096L19.2739 17.1522Z" fill="#0B5C71"/>
</svg>
