<svg width="12" height="14" viewBox="0 0 12 14" fill="none" xmlns="http://www.w3.org/2000/svg">
<path id="location_on" d="M5.9999 7C6.3849 7 6.71449 6.86292 6.98865 6.58875C7.26282 6.31458 7.3999 5.985 7.3999 5.6C7.3999 5.215 7.26282 4.88542 6.98865 4.61125C6.71449 4.33708 6.3849 4.2 5.9999 4.2C5.6149 4.2 5.28532 4.33708 5.01115 4.61125C4.73699 4.88542 4.5999 5.215 4.5999 5.6C4.5999 5.985 4.73699 6.31458 5.01115 6.58875C5.28532 6.86292 5.6149 7 5.9999 7ZM5.9999 12.145C7.42324 10.8383 8.47907 9.65125 9.1674 8.58375C9.85574 7.51625 10.1999 6.56833 10.1999 5.74C10.1999 4.46833 9.79449 3.42708 8.98365 2.61625C8.17282 1.80542 7.17824 1.4 5.9999 1.4C4.82157 1.4 3.82699 1.80542 3.01615 2.61625C2.20532 3.42708 1.7999 4.46833 1.7999 5.74C1.7999 6.56833 2.14407 7.51625 2.8324 8.58375C3.52074 9.65125 4.57657 10.8383 5.9999 12.145ZM5.9999 14C4.12157 12.4017 2.71865 10.9171 1.79115 9.54625C0.863652 8.17542 0.399902 6.90667 0.399902 5.74C0.399902 3.99 0.962819 2.59583 2.08865 1.5575C3.21449 0.519167 4.51824 0 5.9999 0C7.48157 0 8.78532 0.519167 9.91115 1.5575C11.037 2.59583 11.5999 3.99 11.5999 5.74C11.5999 6.90667 11.1362 8.17542 10.2087 9.54625C9.28115 10.9171 7.87824 12.4017 5.9999 14Z" fill="#565656"/>
</svg>
