<svg width="24" height="24" viewBox="0 0 24 24" fill="none" xmlns="http://www.w3.org/2000/svg">
<g id="no_stroller">
<mask id="mask0_1001_6436" style="mask-type:alpha" maskUnits="userSpaceOnUse" x="0" y="0" width="24" height="24">
<rect id="Bounding box" width="24" height="24" fill="#D9D9D9"/>
</mask>
<g mask="url(#mask0_1001_6436)">
<path id="no_stroller_2" d="M5.9999 21.9998C5.4499 21.9998 4.97907 21.804 4.5874 21.4123C4.19574 21.0206 3.9999 20.5498 3.9999 19.9998C3.9999 19.4498 4.19574 18.979 4.5874 18.5873C4.97907 18.1956 5.4499 17.9998 5.9999 17.9998C6.5499 17.9998 7.02074 18.1956 7.4124 18.5873C7.80407 18.979 7.9999 19.4498 7.9999 19.9998C7.9999 20.5498 7.80407 21.0206 7.4124 21.4123C7.02074 21.804 6.5499 21.9998 5.9999 21.9998ZM16.9999 14.1748L14.9999 12.1748V8.64981L13.3999 10.5498L11.9749 9.14981L16.1999 4.1748C16.5332 3.79147 16.9082 3.4998 17.3249 3.2998C17.7416 3.0998 18.1832 2.9998 18.6499 2.9998C19.5832 2.9998 20.3749 3.3248 21.0249 3.9748C21.6749 4.6248 21.9999 5.41647 21.9999 6.34981V6.9998H19.9999V6.34981C19.9999 5.96647 19.8707 5.64564 19.6124 5.38731C19.3541 5.12897 19.0332 4.9998 18.6499 4.9998C18.4832 4.9998 18.3249 5.03314 18.1749 5.0998C18.0249 5.16647 17.8916 5.26647 17.7749 5.3998L16.9999 6.27481V14.1748ZM14.9999 14.9998L16.3999 16.3998C16.2166 16.5831 16.0082 16.729 15.7749 16.8373C15.5416 16.9456 15.2832 16.9998 14.9999 16.9998H7.4249C6.99157 16.9998 6.6874 16.8081 6.5124 16.4248C6.3374 16.0415 6.39157 15.6831 6.6749 15.3498L9.3749 12.1748L1.3999 4.2248L2.7999 2.7998L21.1999 21.1998L19.7749 22.5998L10.7749 13.5998L9.5999 14.9998H14.9999ZM15.9999 21.9998C15.4499 21.9998 14.9791 21.804 14.5874 21.4123C14.1957 21.0206 13.9999 20.5498 13.9999 19.9998C13.9999 19.4498 14.1957 18.979 14.5874 18.5873C14.9791 18.1956 15.4499 17.9998 15.9999 17.9998C16.5499 17.9998 17.0207 18.1956 17.4124 18.5873C17.8041 18.979 17.9999 19.4498 17.9999 19.9998C17.9999 20.5498 17.8041 21.0206 17.4124 21.4123C17.0207 21.804 16.5499 21.9998 15.9999 21.9998ZM10.8999 8.07481L9.4749 6.64981L10.8499 5.0498C10.7166 5.01647 10.5749 4.9998 10.4249 4.9998H9.9999C9.66657 4.9998 9.34574 5.0248 9.0374 5.0748C8.72907 5.1248 8.41657 5.19147 8.0999 5.2748L6.5249 3.6998C7.0749 3.46647 7.64157 3.29147 8.2249 3.1748C8.80824 3.05814 9.3999 2.9998 9.9999 2.9998C10.7499 2.9998 11.4874 3.09147 12.2124 3.2748C12.9374 3.45814 13.6332 3.73314 14.2999 4.0998L10.8999 8.07481Z" fill="#0B5C71"/>
</g>
</g>
</svg>
