<svg width="52" height="52" viewBox="0 0 52 52" fill="none" xmlns="http://www.w3.org/2000/svg">
<g id="simple-icons:kakaotalk">
<g clip-path="url(#clip0_1394_4106)">
<rect width="52" height="52" rx="26" fill="#0A0000"/>
<path id="Vector" d="M47.9375 0H4.0625C1.81783 0 0 1.82 0 4.0625V47.9375C0 50.1822 1.82 52 4.0625 52H47.9375C50.1822 52 52 50.18 52 47.9375V4.0625C52 1.81783 50.18 0 47.9375 0ZM26 40.625C24.7195 40.625 23.465 40.5362 22.2473 40.365C21.0297 41.223 13.9858 46.1695 13.3207 46.2627C13.3207 46.2627 13.0498 46.3688 12.818 46.2323C12.5862 46.0958 12.6273 45.7362 12.6273 45.7362C12.6967 45.2595 14.4538 39.1972 14.7767 38.0813C8.82917 35.1347 4.875 29.9152 4.875 23.9698C4.875 14.7702 14.3325 7.3125 26 7.3125C37.6675 7.3125 47.125 14.7702 47.125 23.9698C47.125 33.1673 37.6675 40.625 26 40.625ZM17.4417 21.3785H15.5393V28.6195C15.5393 29.2608 14.9933 29.783 14.3195 29.783C13.6457 29.783 13.1018 29.263 13.1018 28.6195V21.3785H11.1995C10.8984 21.3563 10.6168 21.2209 10.4113 20.9997C10.2058 20.7785 10.0916 20.4877 10.0916 20.1858C10.0916 19.8838 10.2058 19.593 10.4113 19.3718C10.6168 19.1506 10.8984 19.0152 11.1995 18.993H17.4395C17.7406 19.0152 18.0222 19.1506 18.2277 19.3718C18.4332 19.593 18.5474 19.8838 18.5474 20.1858C18.5474 20.4877 18.4332 20.7785 18.2277 20.9997C18.0222 21.2209 17.7406 21.3563 17.4395 21.3785M41.2447 27.7853C41.342 27.9128 41.413 28.0583 41.4535 28.2134C41.4941 28.3685 41.5033 28.5301 41.4808 28.6888C41.4586 28.8472 41.4052 28.9995 41.3237 29.1371C41.2423 29.2747 41.1344 29.3948 41.0063 29.4905C40.7959 29.6509 40.5386 29.7377 40.274 29.7375C40.0848 29.7385 39.8981 29.6951 39.7288 29.6108C39.5594 29.5266 39.4122 29.4037 39.299 29.2522L36.4412 25.467L36.0187 25.8895V28.548C36.0181 28.871 35.8897 29.1806 35.6615 29.4092C35.4333 29.6377 35.124 29.7667 34.801 29.7678C34.4775 29.7678 34.1672 29.6393 33.9384 29.4106C33.7097 29.1818 33.5812 28.8715 33.5812 28.548V20.2107C33.5944 19.8963 33.7286 19.5993 33.9557 19.3815C34.1828 19.1638 34.4853 19.0422 34.7999 19.0422C35.1145 19.0422 35.417 19.1638 35.6441 19.3815C35.8712 19.5993 36.0054 19.8963 36.0187 20.2107V22.8323L39.4203 19.4307C39.5091 19.343 39.6144 19.2738 39.73 19.2269C39.8456 19.1801 39.9694 19.1565 40.0942 19.1577C40.3975 19.1577 40.7052 19.2898 40.9348 19.5195C41.1439 19.7245 41.2711 19.9988 41.2923 20.2908C41.3036 20.4267 41.2854 20.5635 41.239 20.6917C41.1927 20.82 41.1192 20.9367 41.0237 21.034L38.246 23.8095L41.2447 27.7853ZM23.153 20.1977C22.9472 19.6127 22.3232 19.0103 21.528 18.993C20.735 19.0103 20.111 19.6127 19.9052 20.1955L16.991 27.8677C16.6205 29.016 16.9433 29.445 17.2792 29.601C17.522 29.7115 17.7858 29.7684 18.0527 29.7678C18.5618 29.7678 18.9497 29.562 19.0667 29.2305L19.6712 27.6488H23.387L23.9915 29.2305C24.1085 29.562 24.4963 29.7678 25.0055 29.7678C25.2725 29.7676 25.5363 29.7099 25.779 29.5988C26.1148 29.445 26.4377 29.0182 26.0672 27.8655L23.153 20.1977ZM20.3125 25.4908L21.5302 22.0328L22.7457 25.4908H20.3125ZM33.1067 28.4873C33.0998 28.7904 32.973 29.0783 32.7541 29.288C32.5351 29.4976 32.2419 29.6117 31.9388 29.6053H28.0302C27.8799 29.6088 27.7305 29.5826 27.5904 29.5283C27.4502 29.474 27.3222 29.3926 27.2135 29.2887C27.1049 29.1849 27.0178 29.0607 26.9571 28.9232C26.8965 28.7857 26.8635 28.6376 26.8602 28.4873V20.2107C26.8602 19.539 27.4192 18.993 28.106 18.993C28.7928 18.993 29.3497 19.539 29.3497 20.2107V27.3715H31.9388C32.5823 27.3715 33.1088 27.872 33.1088 28.4873" fill="#FEE500"/>
</g>
</g>
<defs>
<clipPath id="clip0_1394_4106">
<rect width="52" height="52" rx="26" fill="white"/>
</clipPath>
</defs>
</svg>
