<svg width="76" height="49" viewBox="0 0 76 49" fill="none" xmlns="http://www.w3.org/2000/svg">
<path fill-rule="evenodd" clip-rule="evenodd" d="M37.4453 14.168C37.8034 13.9292 38.2742 13.9464 38.6139 14.2106L47.6139 21.2106C47.8575 21.4001 48 21.6914 48 22V33C48 33.5523 47.5523 34 47 34H40C39.4477 34 39 33.5523 39 33V27H37V33C37 33.5523 36.5523 34 36 34H29C28.4477 34 28 33.5523 28 33V21C28 20.6656 28.1671 20.3534 28.4453 20.168L37.4453 14.168ZM30 21.5352V32H35V26C35 25.4477 35.4477 25 36 25H40C40.5523 25 41 25.4477 41 26V32H46V22.4891L37.955 16.2319L30 21.5352Z" fill="#565656"/>
</svg>
