<svg width="76" height="49" viewBox="0 0 76 49" fill="none" xmlns="http://www.w3.org/2000/svg">
<path fill-rule="evenodd" clip-rule="evenodd" d="M34.6667 32L29.7165 33.4851C28.861 33.7417 28 33.1011 28 32.208V16.992C28 16.4032 28.3862 15.8841 28.9502 15.7149L34.6667 14L41.3333 16L46.2835 14.5149C47.139 14.2583 48 14.8989 48 15.792V31.008C48 31.5968 47.6138 32.1159 47.0498 32.2851L41.3333 34L34.6667 32ZM40.5 32.0099L35.5 30.5099V15.9901L40.5 17.4901V32.0099ZM42.1667 17.4901V32.0099L46.3333 30.7599V16.2401L42.1667 17.4901ZM33.8333 15.9901V30.5099L29.6667 31.7599V17.2401L33.8333 15.9901ZM29.2376 31.8887C29.2374 31.8887 29.2377 31.8886 29.2376 31.8887V31.8887Z" fill="#565656"/>
</svg>
