<svg width="76" height="49" viewBox="0 0 76 49" fill="none" xmlns="http://www.w3.org/2000/svg">
<path fill-rule="evenodd" clip-rule="evenodd" d="M35 16C32.2386 16 30 18.2386 30 21C30 23.7614 32.2386 26 35 26C37.7614 26 40 23.7614 40 21C40 18.2386 37.7614 16 35 16ZM28 21C28 17.134 31.134 14 35 14C38.866 14 42 17.134 42 21C42 22.5723 41.4816 24.0236 40.6064 25.1922L47.7071 32.2929C48.0976 32.6834 48.0976 33.3166 47.7071 33.7071C47.3166 34.0976 46.6834 34.0976 46.2929 33.7071L39.1922 26.6064C38.0236 27.4816 36.5723 28 35 28C31.134 28 28 24.866 28 21Z" fill="#565656"/>
</svg>
