<svg width="76" height="49" viewBox="0 0 76 49" fill="none" xmlns="http://www.w3.org/2000/svg">
<path fill-rule="evenodd" clip-rule="evenodd" d="M38 16C36.6193 16 35.5 17.1193 35.5 18.5C35.5 19.8807 36.6193 21 38 21C39.3807 21 40.5 19.8807 40.5 18.5C40.5 17.1193 39.3807 16 38 16ZM33.5 18.5C33.5 16.0147 35.5147 14 38 14C40.4853 14 42.5 16.0147 42.5 18.5C42.5 20.9853 40.4853 23 38 23C35.5147 23 33.5 20.9853 33.5 18.5ZM29.2534 28.5097C30.5512 26.2026 33.1299 24 38 24C42.8701 24 45.4488 26.2026 46.7466 28.5097C47.377 29.6305 47.6877 30.7416 47.8422 31.5657C47.9199 31.9798 47.9592 32.3275 47.9792 32.5762C47.9892 32.7006 47.9944 32.8008 47.9971 32.8727C47.9984 32.9086 47.9992 32.9375 47.9996 32.9589L47.9999 32.9853L48 32.9941L48 32.9988C48 32.9994 48 33 47 33H48C48 33.2652 47.8946 33.5196 47.7071 33.7071C47.5196 33.8946 47.2652 34 47 34H29C28.4477 34 28 33.5523 28 33H29C28 33 28 32.9994 28 32.9988L28 32.9974L28 32.9941L28.0001 32.9853L28.0004 32.9589C28.0008 32.9375 28.0016 32.9086 28.0029 32.8727C28.0056 32.8008 28.0108 32.7006 28.0208 32.5762C28.0408 32.3275 28.0801 31.9798 28.1578 31.5657C28.3123 30.7416 28.623 29.6305 29.2534 28.5097ZM30.1114 32H45.8886C45.8847 31.9784 45.8807 31.9564 45.8765 31.9343C45.7498 31.2584 45.498 30.3695 45.0034 29.4903C44.0512 27.7974 42.1299 26 38 26C33.8701 26 31.9488 27.7974 30.9966 29.4903C30.502 30.3695 30.2502 31.2584 30.1235 31.9343C30.1193 31.9564 30.1153 31.9784 30.1114 32Z" fill="#565656"/>
</svg>
