<svg width="16" height="14" viewBox="0 0 16 14" fill="none" xmlns="http://www.w3.org/2000/svg">
<path d="M8 14L6.84 13.0082C5.49333 11.851 4.38 10.8529 3.5 10.0136C2.62 9.17439 1.92 8.42098 1.4 7.75341C0.88 7.08583 0.516667 6.4723 0.31 5.91281C0.103333 5.35332 0 4.78111 0 4.19619C0 3.00091 0.42 2.00272 1.26 1.20163C2.1 0.400545 3.14667 0 4.4 0C5.09333 0 5.75333 0.139873 6.38 0.419619C7.00667 0.699364 7.54667 1.09355 8 1.60218C8.45333 1.09355 8.99333 0.699364 9.62 0.419619C10.2467 0.139873 10.9067 0 11.6 0C12.8533 0 13.9 0.400545 14.74 1.20163C15.58 2.00272 16 3.00091 16 4.19619C16 4.78111 15.8967 5.35332 15.69 5.91281C15.4833 6.4723 15.12 7.08583 14.6 7.75341C14.08 8.42098 13.38 9.17439 12.5 10.0136C11.62 10.8529 10.5067 11.851 9.16 13.0082L8 14Z" fill="#FF6464"/>
</svg>
