<svg width="20" height="20" viewBox="0 0 20 20" fill="none" xmlns="http://www.w3.org/2000/svg">
<rect width="20" height="20" fill="#F5F5F5"/>
<g clip-path="url(#clip0_324_1242)">
<rect width="9827" height="2561" transform="translate(-3481 -1680)" fill="#E5E1E1"/>
<rect width="1920" height="935" transform="translate(-1397 -338)" fill="white"/>
<path fill-rule="evenodd" clip-rule="evenodd" d="M7 2C4.23858 2 2 4.23858 2 7C2 9.76142 4.23858 12 7 12C9.76142 12 12 9.76142 12 7C12 4.23858 9.76142 2 7 2ZM0 7C0 3.13401 3.13401 0 7 0C10.866 0 14 3.13401 14 7C14 8.57234 13.4816 10.0236 12.6064 11.1922L19.7071 18.2929C20.0976 18.6834 20.0976 19.3166 19.7071 19.7071C19.3166 20.0976 18.6834 20.0976 18.2929 19.7071L11.1922 12.6064C10.0236 13.4816 8.57234 14 7 14C3.13401 14 0 10.866 0 7Z" fill="#565656"/>
</g>
<defs>
<clipPath id="clip0_324_1242">
<rect width="9827" height="2561" fill="white" transform="translate(-3481 -1680)"/>
</clipPath>
</defs>
</svg>
