<svg width="25" height="32" viewBox="0 0 25 32" fill="none" xmlns="http://www.w3.org/2000/svg">
<rect width="25" height="32" fill="#F5F5F5"/>
<path d="M-533 -1260C-533 -1261.1 -532.105 -1262 -531 -1262H3452C3453.1 -1262 3454 -1261.1 3454 -1260V2207C3454 2208.1 3453.1 2209 3452 2209H-531C-532.105 2209 -533 2208.1 -533 2207V-1260Z" fill="white"/>
<path d="M-531 -1261H3452V-1263H-531V-1261ZM3453 -1260V2207H3455V-1260H3453ZM3452 2208H-531V2210H3452V2208ZM-532 2207V-1260H-534V2207H-532ZM-531 2208C-531.552 2208 -532 2207.55 -532 2207H-534C-534 2208.66 -532.657 2210 -531 2210V2208ZM3453 2207C3453 2207.55 3452.55 2208 3452 2208V2210C3453.66 2210 3455 2208.66 3455 2207H3453ZM3452 -1261C3452.55 -1261 3453 -1260.55 3453 -1260H3455C3455 -1261.66 3453.66 -1263 3452 -1263V-1261ZM-531 -1263C-532.657 -1263 -534 -1261.66 -534 -1260H-532C-532 -1260.55 -531.552 -1261 -531 -1261V-1263Z" fill="black" fill-opacity="0.1"/>
<rect x="-19.5" y="-71.5" width="64" height="123" rx="4.5" stroke="#9747FF" stroke-dasharray="10 5"/>
<path d="M12.8924 25.7469L12.5 25.5794L12.1076 25.7469L1 30.4861L1 3.55556C1 2.84655 1.24175 2.26373 1.75464 1.75312C2.26766 1.24238 2.85517 1 3.57143 1H21.4286C22.1448 1 22.7323 1.24238 23.2454 1.75312C23.7582 2.26373 24 2.84655 24 3.55556V30.4861L12.8924 25.7469Z" stroke="#E0E0E0" stroke-width="2"/>
</svg>
