<svg width="1" height="1" viewBox="0 0 24 31" fill="white" xmlns="http://www.w3.org/2000/svg">
<path fill-rule="evenodd" clip-rule="evenodd" d="M12.3106 6.02336C12.7248 5.63284 13.3964 5.63284 13.8106 6.02336L23.356 15.0234C23.7702 15.4139 23.7702 16.0471 23.356 16.4376L13.8106 25.4376C13.3964 25.8281 12.7248 25.8281 12.3106 25.4376C11.8965 25.0471 11.8965 24.4139 12.3106 24.0234L21.1061 15.7305L12.3106 7.43758C11.8965 7.04705 11.8965 6.41389 12.3106 6.02336Z" fill="current"/>
<path fill-rule="evenodd" clip-rule="evenodd" d="M0.64414 6.02336C1.05833 5.63284 1.72987 5.63284 2.14406 6.02336L11.6895 15.0234C12.1037 15.4139 12.1037 16.0471 11.6895 16.4376L2.14406 25.4376C1.72987 25.8281 1.05833 25.8281 0.64414 25.4376C0.229948 25.0471 0.229948 24.4139 0.64414 24.0234L9.43963 15.7305L0.64414 7.43758C0.229948 7.04705 0.229948 6.41389 0.64414 6.02336Z" fill="current"/>
</svg>
