<svg width="13" height="10" viewBox="0 0 13 10" fill="none" xmlns="http://www.w3.org/2000/svg">
<path fill-rule="evenodd" clip-rule="evenodd" d="M0.48833 0.146447C0.695426 -0.0488155 1.0312 -0.0488155 1.23829 0.146447L6.01102 4.64645C6.21812 4.84171 6.21812 5.15829 6.01102 5.35355L1.23829 9.85355C1.0312 10.0488 0.695426 10.0488 0.48833 9.85355C0.281234 9.65829 0.281234 9.34171 0.48833 9.14645L4.88608 5L0.48833 0.853553C0.281234 0.658291 0.281234 0.341709 0.48833 0.146447Z" fill="#565656"/>
<path fill-rule="evenodd" clip-rule="evenodd" d="M7.32134 0.146447C7.52843 -0.0488155 7.8642 -0.0488155 8.0713 0.146447L12.844 4.64645C13.0511 4.84171 13.0511 5.15829 12.844 5.35355L8.0713 9.85355C7.8642 10.0488 7.52843 10.0488 7.32134 9.85355C7.11424 9.65829 7.11424 9.34171 7.32134 9.14645L11.7191 5L7.32134 0.853553C7.11424 0.658291 7.11424 0.341709 7.32134 0.146447Z" fill="#565656"/>
</svg>
