<svg width="25" height="32" viewBox="0 0 25 32" fill="none" xmlns="http://www.w3.org/2000/svg">
<rect width="25" height="32" fill="rgba(245,245,245,0)"/>
<path d="M-533 -1208C-533 -1209.1 -532.105 -1210 -531 -1210H3452C3453.1 -1210 3454 -1209.1 3454 -1208V2259C3454 2260.1 3453.1 2261 3452 2261H-531C-532.105 2261 -533 2260.1 -533 2259V-1208Z" fill="rgba(255,255,255,0)"/>
<path d="M-531 -1209H3452V-1211H-531V-1209ZM3453 -1208V2259H3455V-1208H3453ZM3452 2260H-531V2262H3452V2260ZM-532 2259V-1208H-534V2259H-532ZM-531 2260C-531.552 2260 -532 2259.55 -532 2259H-534C-534 2260.66 -532.657 2262 -531 2262V2260ZM3453 2259C3453 2259.55 3452.55 2260 3452 2260V2262C3453.66 2262 3455 2260.66 3455 2259H3453ZM3452 -1209C3452.55 -1209 3453 -1208.55 3453 -1208H3455C3455 -1209.66 3453.66 -1211 3452 -1211V-1209ZM-531 -1211C-532.657 -1211 -534 -1209.66 -534 -1208H-532C-532 -1208.55 -531.552 -1209 -531 -1209V-1211Z" fill="black" fill-opacity="0.1"/>
<rect x="-19.5" y="-19.5" width="64" height="123" rx="4.5" stroke="#9747FF" stroke-dasharray="10 5"/>
<path d="M1.39244 31.4059C0.732752 31.6874 0 31.2033 0 30.4861V3.55556C0 2.57778 0.349702 1.74074 1.04911 1.04444C1.74851 0.348148 2.58929 0 3.57143 0H21.4286C22.4107 0 23.2515 0.348148 23.9509 1.04444C24.6503 1.74074 25 2.57778 25 3.55556V30.4861C25 31.2033 24.2672 31.6874 23.6076 31.4059L12.5 26.6667L1.39244 31.4059Z" fill="#74B69D"/>
</svg>
