<svg width="16" height="15" viewBox="0 0 16 15" fill="none" xmlns="http://www.w3.org/2000/svg">
<path d="M8 15L6.84 13.9373C5.49333 12.6975 4.38 11.6281 3.5 10.7289C2.62 9.8297 1.92 9.02248 1.4 8.30722C0.88 7.59196 0.516667 6.93461 0.31 6.33515C0.103333 5.7357 0 5.12262 0 4.49591C0 3.21526 0.42 2.14578 1.26 1.28747C2.1 0.429155 3.14667 0 4.4 0C5.09333 0 5.75333 0.149864 6.38 0.449591C7.00667 0.749319 7.54667 1.17166 8 1.71662C8.45333 1.17166 8.99333 0.749319 9.62 0.449591C10.2467 0.149864 10.9067 0 11.6 0C12.8533 0 13.9 0.429155 14.74 1.28747C15.58 2.14578 16 3.21526 16 4.49591C16 5.12262 15.8967 5.7357 15.69 6.33515C15.4833 6.93461 15.12 7.59196 14.6 8.30722C14.08 9.02248 13.38 9.8297 12.5 10.7289C11.62 11.6281 10.5067 12.6975 9.16 13.9373L8 15Z" fill="#FF6464"/>
</svg>
