<svg width="13" height="15" viewBox="0 0 13 15" fill="none" xmlns="http://www.w3.org/2000/svg">
<path d="M6.6665 7.5C7.079 7.5 7.43213 7.35313 7.72588 7.05938C8.01963 6.76563 8.1665 6.4125 8.1665 6C8.1665 5.5875 8.01963 5.23438 7.72588 4.94063C7.43213 4.64687 7.079 4.5 6.6665 4.5C6.254 4.5 5.90088 4.64687 5.60713 4.94063C5.31338 5.23438 5.1665 5.5875 5.1665 6C5.1665 6.4125 5.31338 6.76563 5.60713 7.05938C5.90088 7.35313 6.254 7.5 6.6665 7.5ZM6.6665 13.0125C8.1915 11.6125 9.32275 10.3406 10.0603 9.19687C10.7978 8.05312 11.1665 7.0375 11.1665 6.15C11.1665 4.7875 10.7321 3.67188 9.86338 2.80312C8.99463 1.93438 7.929 1.5 6.6665 1.5C5.404 1.5 4.33838 1.93438 3.46963 2.80312C2.60088 3.67188 2.1665 4.7875 2.1665 6.15C2.1665 7.0375 2.53525 8.05312 3.27275 9.19687C4.01025 10.3406 5.1415 11.6125 6.6665 13.0125ZM6.6665 15C4.654 13.2875 3.15088 11.6969 2.15713 10.2281C1.16338 8.75937 0.666504 7.4 0.666504 6.15C0.666504 4.275 1.26963 2.78125 2.47588 1.66875C3.68213 0.55625 5.079 0 6.6665 0C8.254 0 9.65088 0.55625 10.8571 1.66875C12.0634 2.78125 12.6665 4.275 12.6665 6.15C12.6665 7.4 12.1696 8.75937 11.1759 10.2281C10.1821 11.6969 8.679 13.2875 6.6665 15Z" fill="#181818"/>
</svg>
