<svg width="66" height="66" viewBox="0 0 66 66" fill="none" xmlns="http://www.w3.org/2000/svg">
<rect x="0.25" y="0.25" width="65.5" height="65.5" rx="7.75" stroke="#E0E0E0" stroke-width="0.5"/>
<path d="M24 43C23.45 43 22.9792 42.8042 22.5875 42.4125C22.1958 42.0208 22 41.55 22 41V29C22 28.45 22.1958 27.9792 22.5875 27.5875C22.9792 27.1958 23.45 27 24 27H27.15L29 25H35V27H29.875L28.05 29H24V41H40V32H42V41C42 41.55 41.8042 42.0208 41.4125 42.4125C41.0208 42.8042 40.55 43 40 43H24ZM40 29V27H38V25H40V23H42V25H44V27H42V29H40ZM32 39.5C33.25 39.5 34.3125 39.0625 35.1875 38.1875C36.0625 37.3125 36.5 36.25 36.5 35C36.5 33.75 36.0625 32.6875 35.1875 31.8125C34.3125 30.9375 33.25 30.5 32 30.5C30.75 30.5 29.6875 30.9375 28.8125 31.8125C27.9375 32.6875 27.5 33.75 27.5 35C27.5 36.25 27.9375 37.3125 28.8125 38.1875C29.6875 39.0625 30.75 39.5 32 39.5ZM32 37.5C31.3 37.5 30.7083 37.2583 30.225 36.775C29.7417 36.2917 29.5 35.7 29.5 35C29.5 34.3 29.7417 33.7083 30.225 33.225C30.7083 32.7417 31.3 32.5 32 32.5C32.7 32.5 33.2917 32.7417 33.775 33.225C34.2583 33.7083 34.5 34.3 34.5 35C34.5 35.7 34.2583 36.2917 33.775 36.775C33.2917 37.2583 32.7 37.5 32 37.5Z" fill="#E0E0E0"/>
</svg>
