<svg width="16" height="15" viewBox="0 0 16 15" fill="none" xmlns="http://www.w3.org/2000/svg">
<path d="M8 15L6.84 13.9373C5.49333 12.6975 4.38 11.6281 3.5 10.7289C2.62 9.8297 1.92 9.02248 1.4 8.30722C0.88 7.59196 0.516667 6.9346 0.31 6.33515C0.103333 5.73569 0 5.12262 0 4.49591C0 3.21526 0.42 2.14578 1.26 1.28747C2.1 0.429155 3.14667 0 4.4 0C5.09333 0 5.75333 0.149864 6.38 0.449591C7.00667 0.749319 7.54667 1.17166 8 1.71662C8.45333 1.17166 8.99333 0.749319 9.62 0.449591C10.2467 0.149864 10.9067 0 11.6 0C12.8533 0 13.9 0.429155 14.74 1.28747C15.58 2.14578 16 3.21526 16 4.49591C16 5.12262 15.8967 5.73569 15.69 6.33515C15.4833 6.9346 15.12 7.59196 14.6 8.30722C14.08 9.02248 13.38 9.8297 12.5 10.7289C11.62 11.6281 10.5067 12.6975 9.16 13.9373L8 15ZM8 12.7929C9.28 11.6213 10.3333 10.6165 11.16 9.77861C11.9867 8.94074 12.64 8.21185 13.12 7.59196C13.6 6.97207 13.9333 6.4203 14.12 5.93665C14.3067 5.453 14.4 4.97275 14.4 4.49591C14.4 3.67847 14.1333 2.99728 13.6 2.45232C13.0667 1.90736 12.4 1.63488 11.6 1.63488C10.9733 1.63488 10.3933 1.8154 9.86 2.17643C9.32667 2.53747 8.96 2.99728 8.76 3.55586H7.24C7.04 2.99728 6.67333 2.53747 6.14 2.17643C5.60667 1.8154 5.02667 1.63488 4.4 1.63488C3.6 1.63488 2.93333 1.90736 2.4 2.45232C1.86667 2.99728 1.6 3.67847 1.6 4.49591C1.6 4.97275 1.69333 5.453 1.88 5.93665C2.06667 6.4203 2.4 6.97207 2.88 7.59196C3.36 8.21185 4.01333 8.94074 4.84 9.77861C5.66667 10.6165 6.72 11.6213 8 12.7929Z" fill="#565656"/>
</svg>
