<svg width="19" height="21" viewBox="0 0 19 21" fill="none" xmlns="http://www.w3.org/2000/svg">
<path d="M15.8486 20.5C15.0153 20.5 14.307 20.2083 13.7236 19.625C13.1403 19.0417 12.8486 18.3333 12.8486 17.5C12.8486 17.3833 12.857 17.2625 12.8736 17.1375C12.8903 17.0125 12.9153 16.9 12.9486 16.8L5.89863 12.7C5.6153 12.95 5.29863 13.1458 4.94863 13.2875C4.59863 13.4292 4.23197 13.5 3.84863 13.5C3.0153 13.5 2.30697 13.2083 1.72363 12.625C1.1403 12.0417 0.848633 11.3333 0.848633 10.5C0.848633 9.66667 1.1403 8.95833 1.72363 8.375C2.30697 7.79167 3.0153 7.5 3.84863 7.5C4.23197 7.5 4.59863 7.57083 4.94863 7.7125C5.29863 7.85417 5.6153 8.05 5.89863 8.3L12.9486 4.2C12.9153 4.1 12.8903 3.9875 12.8736 3.8625C12.857 3.7375 12.8486 3.61667 12.8486 3.5C12.8486 2.66667 13.1403 1.95833 13.7236 1.375C14.307 0.791667 15.0153 0.5 15.8486 0.5C16.682 0.5 17.3903 0.791667 17.9736 1.375C18.557 1.95833 18.8486 2.66667 18.8486 3.5C18.8486 4.33333 18.557 5.04167 17.9736 5.625C17.3903 6.20833 16.682 6.5 15.8486 6.5C15.4653 6.5 15.0986 6.42917 14.7486 6.2875C14.3986 6.14583 14.082 5.95 13.7986 5.7L6.74863 9.8C6.78197 9.9 6.80696 10.0125 6.82363 10.1375C6.8403 10.2625 6.84863 10.3833 6.84863 10.5C6.84863 10.6167 6.8403 10.7375 6.82363 10.8625C6.80696 10.9875 6.78197 11.1 6.74863 11.2L13.7986 15.3C14.082 15.05 14.3986 14.8542 14.7486 14.7125C15.0986 14.5708 15.4653 14.5 15.8486 14.5C16.682 14.5 17.3903 14.7917 17.9736 15.375C18.557 15.9583 18.8486 16.6667 18.8486 17.5C18.8486 18.3333 18.557 19.0417 17.9736 19.625C17.3903 20.2083 16.682 20.5 15.8486 20.5ZM15.8486 4.5C16.132 4.5 16.3695 4.40417 16.5611 4.2125C16.7528 4.02083 16.8486 3.78333 16.8486 3.5C16.8486 3.21667 16.7528 2.97917 16.5611 2.7875C16.3695 2.59583 16.132 2.5 15.8486 2.5C15.5653 2.5 15.3278 2.59583 15.1361 2.7875C14.9445 2.97917 14.8486 3.21667 14.8486 3.5C14.8486 3.78333 14.9445 4.02083 15.1361 4.2125C15.3278 4.40417 15.5653 4.5 15.8486 4.5ZM3.84863 11.5C4.13197 11.5 4.36947 11.4042 4.56113 11.2125C4.7528 11.0208 4.84863 10.7833 4.84863 10.5C4.84863 10.2167 4.7528 9.97917 4.56113 9.7875C4.36947 9.59583 4.13197 9.5 3.84863 9.5C3.5653 9.5 3.3278 9.59583 3.13613 9.7875C2.94447 9.97917 2.84863 10.2167 2.84863 10.5C2.84863 10.7833 2.94447 11.0208 3.13613 11.2125C3.3278 11.4042 3.5653 11.5 3.84863 11.5ZM15.8486 18.5C16.132 18.5 16.3695 18.4042 16.5611 18.2125C16.7528 18.0208 16.8486 17.7833 16.8486 17.5C16.8486 17.2167 16.7528 16.9792 16.5611 16.7875C16.3695 16.5958 16.132 16.5 15.8486 16.5C15.5653 16.5 15.3278 16.5958 15.1361 16.7875C14.9445 16.9792 14.8486 17.2167 14.8486 17.5C14.8486 17.7833 14.9445 18.0208 15.1361 18.2125C15.3278 18.4042 15.5653 18.5 15.8486 18.5Z" fill="#565656"/>
</svg>
