<svg width="16" height="15" viewBox="0 0 16 15" fill="none" xmlns="http://www.w3.org/2000/svg">
<path d="M15.0515 6.79054V12.7252C15.0515 13.1358 14.9053 13.4872 14.6129 13.7796C14.3205 14.072 13.9691 14.2182 13.5585 14.2182H3.10754C2.69696 14.2182 2.34549 14.072 2.05311 13.7796C1.76073 13.4872 1.61454 13.1358 1.61454 12.7252V6.79054C1.32839 6.52927 1.10755 6.19335 0.952028 5.78277C0.796508 5.3722 0.793398 4.9243 0.942697 4.43908L1.72652 1.90099C1.82605 1.57751 2.00334 1.31002 2.2584 1.09851C2.51345 0.887004 2.80894 0.78125 3.14486 0.78125H13.5212C13.8571 0.78125 14.1495 0.883893 14.3983 1.08918C14.6471 1.29447 14.8275 1.56507 14.9395 1.90099L15.7233 4.43908C15.8726 4.9243 15.8695 5.36598 15.714 5.76411C15.5585 6.16224 15.3376 6.50439 15.0515 6.79054ZM9.9753 6.00672C10.3112 6.00672 10.5663 5.89164 10.7405 5.66147C10.9146 5.4313 10.9831 5.17313 10.9457 4.88698L10.5352 2.27424H9.0795V5.03628C9.0795 5.29755 9.1666 5.52461 9.34078 5.71745C9.51496 5.9103 9.72647 6.00672 9.9753 6.00672ZM6.61607 6.00672C6.90222 6.00672 7.1355 5.9103 7.31591 5.71745C7.49631 5.52461 7.58651 5.29755 7.58651 5.03628V2.27424H6.13084L5.72027 4.88698C5.67051 5.18558 5.73582 5.44685 5.91623 5.6708C6.09663 5.89475 6.32991 6.00672 6.61607 6.00672ZM3.29416 6.00672C3.51811 6.00672 3.71406 5.92585 3.88203 5.76411C4.04999 5.60237 4.15263 5.39708 4.18995 5.14825L4.60053 2.27424H3.14486L2.39836 4.775C2.32371 5.02384 2.36415 5.29133 2.51967 5.57749C2.67519 5.86364 2.93335 6.00672 3.29416 6.00672ZM13.3719 6.00672C13.7327 6.00672 13.9939 5.86364 14.1557 5.57749C14.3174 5.29133 14.3547 5.02384 14.2677 4.775L13.4838 2.27424H12.0655L12.4761 5.14825C12.5134 5.39708 12.616 5.60237 12.784 5.76411C12.952 5.92585 13.1479 6.00672 13.3719 6.00672ZM3.10754 12.7252H13.5585V7.46239C13.4963 7.48727 13.4558 7.49971 13.4372 7.49971H13.3719C13.0359 7.49971 12.7404 7.44373 12.4854 7.33175C12.2303 7.21978 11.9784 7.03938 11.7296 6.79054C11.5056 7.01449 11.2506 7.18867 10.9644 7.31309C10.6782 7.43751 10.3734 7.49971 10.0499 7.49971C9.71403 7.49971 9.39988 7.43751 9.1075 7.31309C8.81512 7.18867 8.55696 7.01449 8.33301 6.79054C8.1215 7.01449 7.87578 7.18867 7.59584 7.31309C7.31591 7.43751 7.0142 7.49971 6.69072 7.49971C6.32991 7.49971 6.00332 7.43751 5.71094 7.31309C5.41856 7.18867 5.1604 7.01449 4.93645 6.79054C4.67518 7.05182 4.41701 7.23533 4.16196 7.34108C3.90691 7.44684 3.61764 7.49971 3.29416 7.49971H3.21018C3.17907 7.49971 3.14486 7.48727 3.10754 7.46239V12.7252Z" fill="#181818"/>
</svg>
