<svg width="16" height="16" viewBox="0 0 16 16" fill="none" xmlns="http://www.w3.org/2000/svg">
<path fill-rule="evenodd" clip-rule="evenodd" d="M5.75 2C3.67893 2 2 3.67893 2 5.75C2 7.82107 3.67893 9.5 5.75 9.5C7.82107 9.5 9.5 7.82107 9.5 5.75C9.5 3.67893 7.82107 2 5.75 2ZM0.5 5.75C0.5 2.85051 2.85051 0.5 5.75 0.5C8.6495 0.5 11 2.85051 11 5.75C11 6.92925 10.6112 8.01769 9.95479 8.89413L15.2803 14.2197C15.5732 14.5126 15.5732 14.9874 15.2803 15.2803C14.9874 15.5732 14.5126 15.5732 14.2197 15.2803L8.89413 9.95479C8.01769 10.6112 6.92925 11 5.75 11C2.85051 11 0.5 8.6495 0.5 5.75Z" fill="#565656"/>
</svg>
