<svg width="48" height="48" viewBox="0 0 48 48" fill="none" xmlns="http://www.w3.org/2000/svg">
<g filter="url(#filter0_d_1342_49)">
<rect x="4" y="4" width="40" height="40" rx="20" fill="white" shape-rendering="crispEdges"/>
<path fill-rule="evenodd" clip-rule="evenodd" d="M24 16C22.6193 16 21.5 17.1193 21.5 18.5C21.5 19.8807 22.6193 21 24 21C25.3807 21 26.5 19.8807 26.5 18.5C26.5 17.1193 25.3807 16 24 16ZM19.5 18.5C19.5 16.0147 21.5147 14 24 14C26.4853 14 28.5 16.0147 28.5 18.5C28.5 20.9853 26.4853 23 24 23C21.5147 23 19.5 20.9853 19.5 18.5ZM15.2534 28.5097C16.5512 26.2026 19.1299 24 24 24C28.8701 24 31.4488 26.2026 32.7466 28.5097C33.377 29.6305 33.6877 30.7416 33.8422 31.5657C33.9199 31.9798 33.9592 32.3275 33.9792 32.5762C33.9892 32.7006 33.9944 32.8008 33.9971 32.8727C33.9984 32.9086 33.9992 32.9375 33.9996 32.9589L33.9999 32.9853L34 32.9941L34 32.9988C34 32.9988 34 33 33 33H34C34 33.2652 33.8946 33.5196 33.7071 33.7071C33.5196 33.8946 33.2652 34 33 34H15C14.4477 34 14 33.5523 14 33H15C14 33 14 32.9988 14 32.9988L14 32.9974L14 32.9941L14.0001 32.9853L14.0004 32.9589C14.0008 32.9375 14.0016 32.9086 14.0029 32.8727C14.0056 32.8008 14.0108 32.7006 14.0208 32.5762C14.0408 32.3275 14.0801 31.9798 14.1578 31.5657C14.3123 30.7416 14.623 29.6305 15.2534 28.5097ZM16.1114 32H31.8886C31.8847 31.9784 31.8807 31.9564 31.8765 31.9343C31.7498 31.2584 31.498 30.3695 31.0034 29.4903C30.0512 27.7974 28.1299 26 24 26C19.8701 26 17.9488 27.7974 16.9966 29.4903C16.502 30.3695 16.2502 31.2584 16.1235 31.9343C16.1193 31.9564 16.1153 31.9784 16.1114 32Z" fill="#E0E0E0"/>
</g>
<defs>
<filter id="filter0_d_1342_49" x="0" y="0" width="48" height="48" filterUnits="userSpaceOnUse" color-interpolation-filters="sRGB">
<feFlood flood-opacity="0" result="BackgroundImageFix"/>
<feColorMatrix in="SourceAlpha" type="matrix" values="0 0 0 0 0 0 0 0 0 0 0 0 0 0 0 0 0 0 127 0" result="hardAlpha"/>
<feOffset/>
<feGaussianBlur stdDeviation="2"/>
<feComposite in2="hardAlpha" operator="out"/>
<feColorMatrix type="matrix" values="0 0 0 0 0 0 0 0 0 0 0 0 0 0 0 0 0 0 0.25 0"/>
<feBlend mode="normal" in2="BackgroundImageFix" result="effect1_dropShadow_1342_49"/>
<feBlend mode="normal" in="SourceGraphic" in2="effect1_dropShadow_1342_49" result="shape"/>
</filter>
</defs>
</svg>
