<svg width="450" height="317" viewBox="0 0 450 317" fill="none" xmlns="http://www.w3.org/2000/svg">
<mask id="path-1-inside-1_1635_6469" fill="white">
<path fill-rule="evenodd" clip-rule="evenodd" d="M16 0C7.16344 0 0 7.16345 0 16V276C0 284.837 7.16344 292 16 292H201.792C204.581 292 207.169 293.453 208.622 295.834L219.703 314.002C221.652 317.197 226.291 317.197 228.24 314.002L239.322 295.834C240.774 293.453 243.362 292 246.151 292H434C442.837 292 450 284.837 450 276V16C450 7.16344 442.837 0 434 0H16Z"/>
</mask>
<path fill-rule="evenodd" clip-rule="evenodd" d="M16 0C7.16344 0 0 7.16345 0 16V276C0 284.837 7.16344 292 16 292H201.792C204.581 292 207.169 293.453 208.622 295.834L219.703 314.002C221.652 317.197 226.291 317.197 228.24 314.002L239.322 295.834C240.774 293.453 243.362 292 246.151 292H434C442.837 292 450 284.837 450 276V16C450 7.16344 442.837 0 434 0H16Z" fill="white"/>
<path d="M219.703 314.002L218.849 314.522L218.849 314.522L219.703 314.002ZM228.24 314.002L227.387 313.481L227.387 313.481L228.24 314.002ZM239.322 295.834L238.468 295.313L239.322 295.834ZM208.622 295.834L207.768 296.355L208.622 295.834ZM1 16C1 7.71574 7.71573 1 16 1V-1C6.61116 -1 -1 6.61117 -1 16H1ZM1 276V16H-1V276H1ZM16 291C7.71572 291 1 284.284 1 276H-1C-1 285.389 6.61115 293 16 293V291ZM201.792 291H16V293H201.792V291ZM220.557 313.481L209.475 295.313L207.768 296.355L218.849 314.522L220.557 313.481ZM227.387 313.481C225.828 316.037 222.116 316.037 220.557 313.481L218.849 314.522C221.188 318.357 226.755 318.357 229.094 314.522L227.387 313.481ZM238.468 295.313L227.387 313.481L229.094 314.522L240.175 296.355L238.468 295.313ZM434 291H246.151V293H434V291ZM449 276C449 284.284 442.284 291 434 291V293C443.389 293 451 285.389 451 276H449ZM449 16V276H451V16H449ZM434 1C442.284 1 449 7.71573 449 16H451C451 6.61116 443.389 -1 434 -1V1ZM16 1H434V-1H16V1ZM240.175 296.355C241.446 294.271 243.711 293 246.151 293V291C243.013 291 240.102 292.634 238.468 295.313L240.175 296.355ZM201.792 293C204.233 293 206.497 294.271 207.768 296.355L209.475 295.313C207.841 292.634 204.93 291 201.792 291V293Z" fill="#0B5C71" mask="url(#path-1-inside-1_1635_6469)"/>
</svg>
