<svg width="40" height="40" viewBox="0 0 40 40" fill="none" xmlns="http://www.w3.org/2000/svg">
<rect width="40" height="40" rx="20" fill="white"/>
<path fill-rule="evenodd" clip-rule="evenodd" d="M18.9091 10.2417C14.3582 10.7448 10.7448 14.3582 10.2417 18.9091H8V21.0909H10.2417C10.7448 25.6418 14.3582 29.2552 18.9091 29.7583V32H21.0909V29.7583C25.6418 29.2552 29.2552 25.6418 29.7583 21.0909H32V18.9091H29.7583C29.2552 14.3582 25.6418 10.7448 21.0909 10.2417V8H18.9091V10.2417ZM20 12.3636C15.7826 12.3636 12.3636 15.7826 12.3636 20C12.3636 24.2174 15.7826 27.6364 20 27.6364C24.2174 27.6364 27.6364 24.2174 27.6364 20C27.6364 15.7826 24.2174 12.3636 20 12.3636ZM14.5455 20C14.5455 16.9875 16.9875 14.5455 20 14.5455C23.0125 14.5455 25.4545 16.9875 25.4545 20C25.4545 23.0125 23.0125 25.4545 20 25.4545C16.9875 25.4545 14.5455 23.0125 14.5455 20Z" fill="#0B5C71"/>
</svg>
